<?xml version="1.0" encoding="UTF-8"?> <svg xmlns="http://www.w3.org/2000/svg" id="Layer_1" data-name="Layer 1" viewBox="0 0 140 90.48"><defs><style>.cls-1{fill:#bebebe;}</style></defs><path class="cls-1" d="M73.35,82.88,70.5,90.34h.88l.85-2.28h3.12l.84,2.28h1l-2.85-7.46ZM72.5,87.3l1.28-3.39h0l1.27,3.39Z"></path><polygon class="cls-1" points="82.71 89.29 82.67 89.29 80.38 82.88 79.37 82.88 82.1 90.34 83.14 90.34 85.86 82.88 84.99 82.88 82.71 89.29"></polygon><rect class="cls-1" x="86.77" y="84.79" width="0.87" height="5.55"></rect><path class="cls-1" d="M87.2,82.93a.53.53,0,0,0-.39.15.45.45,0,0,0-.15.35.47.47,0,0,0,.15.37.58.58,0,0,0,.78,0,.44.44,0,0,0,.16-.37.43.43,0,0,0-.16-.35A.53.53,0,0,0,87.2,82.93Z"></path><path class="cls-1" d="M92.78,88.11a1.59,1.59,0,0,0-.13-.22.77.77,0,0,0-.18-.18.86.86,0,0,0-.22-.15,1.23,1.23,0,0,0-.26-.12l-.29-.11-.33-.1-.36-.1a6.27,6.27,0,0,1-.94-.36.63.63,0,0,1-.32-.62.67.67,0,0,1,.33-.65,2,2,0,0,1,.88-.17h.23l.25,0,.25,0,.24.06.23.08.2.08.16.1h0l0-.79a3.46,3.46,0,0,0-.6-.2,4.15,4.15,0,0,0-.91-.1,2.63,2.63,0,0,0-.49,0,2.16,2.16,0,0,0-.44.1,1.9,1.9,0,0,0-.38.17,1.44,1.44,0,0,0-.32.23,1.76,1.76,0,0,0-.24.3,1.35,1.35,0,0,0-.14.37,1.49,1.49,0,0,0,0,.43,1.9,1.9,0,0,0,0,.35,1.15,1.15,0,0,0,.08.28,1.26,1.26,0,0,0,.13.23,1,1,0,0,0,.17.19l.21.15.26.12.27.11.3.09.32.09a6.84,6.84,0,0,1,1,.37.64.64,0,0,1,.35.62.77.77,0,0,1-.32.69,1.71,1.71,0,0,1-1,.22,3.37,3.37,0,0,1-1-.16,2.14,2.14,0,0,1-.86-.46h0L89,90a3,3,0,0,0,.8.32,4.29,4.29,0,0,0,1,.13A2.37,2.37,0,0,0,92.33,90a1.55,1.55,0,0,0,.56-1.3,1.72,1.72,0,0,0,0-.34A1.29,1.29,0,0,0,92.78,88.11Z"></path><path class="cls-1" d="M97.46,85.07a2.48,2.48,0,0,0-1.58-.42,3.37,3.37,0,0,0-1,.15,3.06,3.06,0,0,0-.79.36L94,86h0a2.53,2.53,0,0,1,.87-.5,2.94,2.94,0,0,1,1-.17,1.48,1.48,0,0,1,1,.28,1.24,1.24,0,0,1,.28.88v.25a1.36,1.36,0,0,1-.59.26c-.28.07-.64.15-1.1.22a3.18,3.18,0,0,0-1.34.5,1.32,1.32,0,0,0-.5,1.15,2.25,2.25,0,0,0,0,.38,1.51,1.51,0,0,0,.11.32,1.2,1.2,0,0,0,.16.27,1.1,1.1,0,0,0,.21.22.9.9,0,0,0,.26.17l.29.13.31.07a1.87,1.87,0,0,0,.34,0,2.08,2.08,0,0,0,1.13-.29,1.78,1.78,0,0,0,.67-.91h0v1.06H98V86.47A1.71,1.71,0,0,0,97.46,85.07Zm-.33,3.4a1,1,0,0,1,0,.24,2.09,2.09,0,0,1-.08.23,1,1,0,0,1-.13.23.91.91,0,0,1-.18.21l-.23.18a1.71,1.71,0,0,1-.27.14,1.58,1.58,0,0,1-.31.09,1.83,1.83,0,0,1-.35,0,1.22,1.22,0,0,1-.79-.24.89.89,0,0,1-.3-.74.91.91,0,0,1,.31-.77,2.14,2.14,0,0,1,.81-.3,7,7,0,0,0,1-.21,1.49,1.49,0,0,0,.56-.24Z"></path><path class="cls-1" d="M106.08,87.47a2.11,2.11,0,0,0-.16-.3,1,1,0,0,0-.19-.25,1.21,1.21,0,0,0-.24-.21l-.29-.16-.32-.15a2,2,0,0,0-.34-.12l-.37-.11-.39-.11-.38-.12-.35-.11a2.08,2.08,0,0,1-.3-.13,2,2,0,0,1-.25-.14.87.87,0,0,1-.21-.17.8.8,0,0,1-.15-.21.73.73,0,0,1-.09-.26,1.51,1.51,0,0,1,0-.32.88.88,0,0,1,.44-.85,2.32,2.32,0,0,1,1.12-.25,3.54,3.54,0,0,1,1.18.21,2.7,2.7,0,0,1,.93.51h0l-.07-1a2.82,2.82,0,0,0-.74-.36,4.22,4.22,0,0,0-1.3-.17,4.07,4.07,0,0,0-.5,0,3.4,3.4,0,0,0-.46.09,2.61,2.61,0,0,0-.42.16,1.93,1.93,0,0,0-.37.23,2,2,0,0,0-.3.28,1.63,1.63,0,0,0-.23.35,1.5,1.5,0,0,0-.15.42,2.44,2.44,0,0,0-.05.48,2.54,2.54,0,0,0,0,.41,1.79,1.79,0,0,0,.09.35,1.4,1.4,0,0,0,.15.3,1.64,1.64,0,0,0,.19.25,1.55,1.55,0,0,0,.23.21l.27.17.31.15.34.12.35.12.37.1a5.12,5.12,0,0,1,1.36.53,1,1,0,0,1,.47,1,1.07,1.07,0,0,1-.45,1,2.25,2.25,0,0,1-1.3.31,4.05,4.05,0,0,1-2.48-.86h0l0,1a3.55,3.55,0,0,0,1.07.47,5,5,0,0,0,1.31.19,3.16,3.16,0,0,0,2-.57,2,2,0,0,0,.73-1.65,2.81,2.81,0,0,0,0-.43A1.9,1.9,0,0,0,106.08,87.47Z"></path><path class="cls-1" d="M112.38,86.52a3.07,3.07,0,0,0-.2-.45,2.19,2.19,0,0,0-.26-.41,1.56,1.56,0,0,0-.33-.35,2.66,2.66,0,0,0-.38-.28,2.86,2.86,0,0,0-.43-.21,3.37,3.37,0,0,0-.48-.12,3,3,0,0,0-.53,0,2.87,2.87,0,0,0-.52,0,3.37,3.37,0,0,0-.48.12,3,3,0,0,0-.44.21,3.37,3.37,0,0,0-.38.28,2.2,2.2,0,0,0-.33.35,2.85,2.85,0,0,0-.26.41,3,3,0,0,0-.19.45,2.83,2.83,0,0,0-.13.5,4.91,4.91,0,0,0,0,.55,4.56,4.56,0,0,0,0,.54,2.62,2.62,0,0,0,.13.5,2.76,2.76,0,0,0,.19.46,2.3,2.3,0,0,0,.26.4,2.73,2.73,0,0,0,.33.35,3.37,3.37,0,0,0,.38.28,2.19,2.19,0,0,0,.44.2,2.42,2.42,0,0,0,.48.13,2.87,2.87,0,0,0,.52,0,3,3,0,0,0,.53,0,2.42,2.42,0,0,0,.48-.13,2.11,2.11,0,0,0,.43-.2,2.66,2.66,0,0,0,.38-.28,1.81,1.81,0,0,0,.33-.35,1.84,1.84,0,0,0,.26-.4,2.77,2.77,0,0,0,.2-.46,2,2,0,0,0,.12-.5,3.12,3.12,0,0,0,0-.54,3.31,3.31,0,0,0,0-.55A2.15,2.15,0,0,0,112.38,86.52Zm-1.22,2.64a1.93,1.93,0,0,1-2.78,0,2.47,2.47,0,0,1-.47-1.59,2.53,2.53,0,0,1,.47-1.61,2,2,0,0,1,2.78,0,2.53,2.53,0,0,1,.47,1.61A2.47,2.47,0,0,1,111.16,89.16Z"></path><rect class="cls-1" x="113.63" y="82.58" width="0.87" height="7.76"></rect><path class="cls-1" d="M119.83,88.2a1.19,1.19,0,0,1,0,.33,1.49,1.49,0,0,1-.09.3l-.16.26a1.37,1.37,0,0,1-.2.22,2.2,2.2,0,0,1-.25.17,1,1,0,0,1-.28.13l-.31.08a1.84,1.84,0,0,1-.33,0,1.39,1.39,0,0,1-1.08-.33,1.54,1.54,0,0,1-.3-1V84.79h-.87v3.76a1.87,1.87,0,0,0,.53,1.45,2,2,0,0,0,1.41.48l.3,0,.29,0,.28-.1a1.63,1.63,0,0,0,.53-.31,1.25,1.25,0,0,0,.23-.23,1.35,1.35,0,0,0,.2-.27,2.52,2.52,0,0,0,.14-.33h0v1.17h.83V84.79h-.87Z"></path><path class="cls-1" d="M124.75,89.68a2.52,2.52,0,0,1-.58.06.92.92,0,0,1-.59-.18.89.89,0,0,1-.23-.71V85.51h1.59l.11-.72h-1.7v-1.3l-.87.13v1.19l-.9.13-.12.57h1V89a1.4,1.4,0,0,0,.43,1.15,1.77,1.77,0,0,0,1.15.35,3.05,3.05,0,0,0,.6-.06,1.62,1.62,0,0,0,.44-.14l.08-.74h0A2.3,2.3,0,0,1,124.75,89.68Z"></path><path class="cls-1" d="M126.43,82.93a.53.53,0,0,0-.39.15.45.45,0,0,0-.15.35.47.47,0,0,0,.15.37.53.53,0,0,0,.39.15.56.56,0,0,0,.39-.15.47.47,0,0,0,.16-.37.46.46,0,0,0-.16-.35A.56.56,0,0,0,126.43,82.93Z"></path><rect class="cls-1" x="125.99" y="84.79" width="0.87" height="5.55"></rect><path class="cls-1" d="M133.36,86.52a3,3,0,0,0-.19-.45,2.85,2.85,0,0,0-.26-.41,2.2,2.2,0,0,0-.33-.35,3.37,3.37,0,0,0-.38-.28,3,3,0,0,0-.44-.21,3.37,3.37,0,0,0-.48-.12,2.87,2.87,0,0,0-.52,0,3,3,0,0,0-.53,0,3.37,3.37,0,0,0-.48.12,2.86,2.86,0,0,0-.43.21,3.48,3.48,0,0,0-.39.28,1.78,1.78,0,0,0-.32.35,2.19,2.19,0,0,0-.26.41,2.28,2.28,0,0,0-.2.45,2.15,2.15,0,0,0-.12.5,3.31,3.31,0,0,0,0,.55,3.12,3.12,0,0,0,0,.54,2,2,0,0,0,.12.5,2.13,2.13,0,0,0,.2.46,1.84,1.84,0,0,0,.26.4,2.11,2.11,0,0,0,.32.35,3.48,3.48,0,0,0,.39.28,2.11,2.11,0,0,0,.43.2,2.42,2.42,0,0,0,.48.13,3,3,0,0,0,.53,0,2.87,2.87,0,0,0,.52,0,2.42,2.42,0,0,0,.48-.13,2.19,2.19,0,0,0,.44-.2,3.37,3.37,0,0,0,.38-.28,2.73,2.73,0,0,0,.33-.35,2.3,2.3,0,0,0,.26-.4,2.76,2.76,0,0,0,.19-.46,2.62,2.62,0,0,0,.13-.5,4.56,4.56,0,0,0,0-.54,4.91,4.91,0,0,0,0-.55A2.83,2.83,0,0,0,133.36,86.52Zm-1.22,2.64a1.66,1.66,0,0,1-1.38.59,1.68,1.68,0,0,1-1.39-.59,2.41,2.41,0,0,1-.48-1.59,2.47,2.47,0,0,1,.48-1.61,1.67,1.67,0,0,1,1.39-.58,1.65,1.65,0,0,1,1.38.58,2.47,2.47,0,0,1,.47,1.61A2.41,2.41,0,0,1,132.14,89.16Z"></path><path class="cls-1" d="M137.47,84.65l-.29,0c-.1,0-.2,0-.3.06l-.29.09a1.74,1.74,0,0,0-.27.14l-.26.17a1.67,1.67,0,0,0-.23.23,2,2,0,0,0-.19.28,2.52,2.52,0,0,0-.14.33h-.05V84.79h-.83v5.55h.87v-3.4a1.39,1.39,0,0,1,.49-1.12,1.76,1.76,0,0,1,1.17-.41,1.35,1.35,0,0,1,1.08.35,1.56,1.56,0,0,1,.3,1v3.54h.87V86.56a1.83,1.83,0,0,0-.52-1.44A2,2,0,0,0,137.47,84.65Z"></path><path class="cls-1" d="M51.13,37.69A14.46,14.46,0,0,1,36.67,23.23H27.9A23.23,23.23,0,0,0,51.13,46.45Z"></path><path class="cls-1" d="M103.34,23.23h8.76A23.23,23.23,0,0,0,88.88,0V8.77a14.46,14.46,0,0,1,14.46,14.46Z"></path><path class="cls-1" d="M88.81,46.45V37.69A14.47,14.47,0,0,1,74.35,23.23h0A23.23,23.23,0,0,0,51.13,0V8.77A14.46,14.46,0,0,1,65.59,23.23h0A23.23,23.23,0,0,0,88.81,46.45Z"></path><path class="cls-1" d="M30.35,62.42l-.06-1.28H27.08V71.78H30.4V66.31c0-1.38,1.43-2.33,3.46-2.33l.22-3h0A4.91,4.91,0,0,0,30.35,62.42Z"></path><path class="cls-1" d="M42.23,60.94a4.91,4.91,0,0,0-3.73,1.48l-.06-1.28H35.23V71.78h3.32V66.31C38.55,64.93,40,64,42,64l.22-3Z"></path><path class="cls-1" d="M133.51,72a3.84,3.84,0,0,0,3.24-1.51l.06,1.31H140l0-15.23h-3.32v5.82a3.86,3.86,0,0,0-3.13-1.43c-2.81,0-5.08,2.25-5.08,5.57,0,.11,0,.22,0,.34A5.11,5.11,0,0,0,133.51,72Zm.51-7.67a2.41,2.41,0,0,1,2.66,2.14,2.26,2.26,0,0,1,0,.26,2.41,2.41,0,1,1-2.67-2.4Z"></path><path class="cls-1" d="M47.68,60.94a5.19,5.19,0,0,0-5.44,5.62c0,3.26,2.25,5.42,5.6,5.42a5.53,5.53,0,0,0,4.69-2.32L50,68.41a2.71,2.71,0,0,1-2.14,1h-.09a1.9,1.9,0,0,1-2-1.77h7.33c.05-.43.08-.88.09-1.32a4.28,4.28,0,0,0,0-.62A5.1,5.1,0,0,0,47.68,60.94ZM45.76,65.4h0c.24-1.2.83-1.87,1.94-1.87s1.76.67,2,1.87Z"></path><path class="cls-1" d="M94.26,69.12a2.69,2.69,0,0,1,0-5.35,2.51,2.51,0,0,1,1.8.69l1.87-2.25a6,6,0,0,0-3.72-1.27c-3.54,0-5.89,2.19-5.89,5.51S90.64,72,94.12,72a5.88,5.88,0,0,0,4.17-1.51l-1.88-2.21A2.58,2.58,0,0,1,94.26,69.12Z"></path><path class="cls-1" d="M76,70.47l-1.88-2.21a2.61,2.61,0,0,1-2.15.86,2.69,2.69,0,0,1,0-5.35,2.56,2.56,0,0,1,1.8.69l1.87-2.25a6.11,6.11,0,0,0-3.72-1.27c-3.54,0-5.89,2.19-5.89,5.51S68.33,72,71.8,72A5.88,5.88,0,0,0,76,70.47Z"></path><rect class="cls-1" x="99.6" y="56.54" width="3.32" height="15.24"></rect><path class="cls-1" d="M80.94,73.4a5.42,5.42,0,0,1-3.41-1L76.81,75A6.59,6.59,0,0,0,81,76.28c3.67,0,6.09-2.23,6.09-5.62V61.11H83.79v6.17a1.22,1.22,0,0,1,0,.27,1.79,1.79,0,1,1-3.57-.27V61.11H76.9v6.66c0,.15,0,.3,0,.44a3.86,3.86,0,0,0,4,3.73,4,4,0,0,0,2.94-1.23,1.92,1.92,0,0,1,0,.24A2.66,2.66,0,0,1,80.94,73.4Z"></path><path class="cls-1" d="M110,60.94c-3.52,0-5.86,2.21-5.86,5.51S106.54,72,110,72s5.8-2.23,5.8-5.53S113.52,60.94,110,60.94Zm0,8.18a2.4,2.4,0,1,1,2.38-2.67,2.46,2.46,0,0,1,0,.26A2.41,2.41,0,0,1,110,69.12Z"></path><path class="cls-1" d="M123.87,67.3a1.31,1.31,0,0,1,0,.28,1.8,1.8,0,0,1-3.59-.28V61.13H117V67.3C117,70.12,119,72,122.07,72s5.13-1.65,5.13-4.08V61.13h-3.33Z"></path><path class="cls-1" d="M22.43,67.3v.28a1.81,1.81,0,0,1-3.6-.28V61.13H15.51V67.3c0,2.82,2.1,4.68,5.13,4.68s5.11-1.65,5.11-4.08V61.13H22.43Z"></path><path class="cls-1" d="M64.8,64.61a3.93,3.93,0,0,0-4.17-3.67,4.35,4.35,0,0,0-3.28,1.39v-1.2H54.16V71.78h3.32V65.61a2,2,0,0,1,4,0v6.17h3.32V65.1h0A4.17,4.17,0,0,0,64.8,64.61Z"></path><path class="cls-1" d="M8,59.46H8a4.81,4.81,0,0,1,4.05,2.19l2.44-2.17A8.09,8.09,0,0,0,8,56.3a7.74,7.74,0,0,0-.57,15.46H8a8.11,8.11,0,0,0,6.46-3.13L12,66.5a4.76,4.76,0,0,1-4,2.08,4.56,4.56,0,1,1,0-9.12Z"></path></svg> 