<svg version="1.1" id="Layer_1" xmlns:x="ns_extend;" xmlns:i="ns_ai;" xmlns:graph="ns_graphs;" xmlns="http://www.w3.org/2000/svg" xmlns:xlink="http://www.w3.org/1999/xlink" x="0px" y="0px" viewBox="0 0 167.6 105" style="enable-background:new 0 0 167.6 105;" xml:space="preserve">
 <style type="text/css">
  .st0{fill:#FFFFFF;}
 </style>
 <metadata>
  <sfw xmlns="ns_sfw;">
   <slices>
   </slices>
   <sliceSourceBounds bottomLeftOrigin="true" height="105" width="167.6" x="65.4" y="179">
   </sliceSourceBounds>
  </sfw>
 </metadata>
 <g>
  <path class="st0" d="M23.2,68.2c-5.5,0-7.4-2.7-7.4-6.6V44.2h12.1v-8H15.8V22.3H6.5v13.9H0v8.1h5.9v17.5c0,8.9,5.8,14.8,15.8,14.8
		c2.8,0,5.4-0.5,6.7-1.1l-0.3-8.2C26.6,68,25,68.2,23.2,68.2L23.2,68.2z M44.2,36.2h-9.9v40h9.9V36.2z M72.9,35.8
		c-6,0-10.2,2.5-12.5,6.2L60,36.2h-9.5v40h9.9V53.5c0-5.5,3.5-9.1,8.9-9.1c5,0,7.6,3.3,7.6,9v22.8h10V51.1
		C86.9,41.9,81.7,35.8,72.9,35.8L72.9,35.8z M114.9,52.8l14.9-16.6h-11.9l-15,17.3V22.3h-9.9v53.9h9.9V66.1l5.7-6.3L120,76.2h11.3
		L114.9,52.8z M44.2,22.3h-9.9v8.8h9.9V22.3z M134.4,12.4c6.8,0,12.4-5.6,12.4-12.4h9.9c0,12.3-10,22.3-22.3,22.3L134.4,12.4
		L134.4,12.4z M134.4,12.4">
  </path>
  <path class="st0" d="M167.6,22.3c-6.8,0-12.4,5.6-12.4,12.4c0,6.8,5.5,12.4,12.4,12.4V57c-12.3,0-22.3-10-22.3-22.3
		c0-12.3,10-22.3,22.3-22.3V22.3z M52,104.7h-1.5l4.8-12.4H57l4.7,12.4H60l-1.4-3.8h-5.2L52,104.7z M53.8,99.7h4.3L56,94h0
		L53.8,99.7z M67.3,92.3l3.8,10.7h0.1L75,92.3h1.5l-4.5,12.4h-1.7l-4.5-12.4H67.3z M78,93.2c0-0.2,0.1-0.4,0.3-0.6
		c0.2-0.2,0.4-0.2,0.7-0.2c0.3,0,0.5,0.1,0.6,0.2c0.2,0.2,0.3,0.4,0.3,0.6c0,0.3-0.1,0.4-0.3,0.6c-0.2,0.2-0.4,0.2-0.6,0.2
		c-0.2,0-0.5-0.1-0.7-0.2C78.1,93.7,78,93.4,78,93.2L78,93.2z M79.7,95.5v9.2h-1.5v-9.2H79.7z M82,98c0-0.6,0.2-1.1,0.4-1.5
		c0.3-0.4,0.7-0.7,1.2-0.9c0.6-0.2,1.2-0.3,1.8-0.3c0.6,0,1.1,0,1.5,0.1c0.4,0.1,0.8,0.2,1,0.3l0.1,1.3H88c-0.2-0.2-0.5-0.3-0.7-0.3
		c-0.3-0.1-0.6-0.2-0.9-0.2c-0.3,0-0.6-0.1-0.9-0.1c-0.6,0-1.1,0.1-1.5,0.3c-0.4,0.2-0.5,0.5-0.5,1.1c0,0.3,0.1,0.6,0.2,0.8
		c0.2,0.2,0.4,0.3,0.7,0.5c0.3,0.1,0.7,0.2,1.1,0.4c0.6,0.2,1.2,0.4,1.7,0.5c0.5,0.2,0.8,0.4,1.1,0.7c0.3,0.3,0.4,0.8,0.4,1.4
		c0,0.9-0.3,1.7-0.9,2.2c-0.6,0.5-1.5,0.8-2.6,0.8c-0.6,0-1.2-0.1-1.7-0.2c-0.5-0.1-0.9-0.3-1.3-0.5l-0.1-1.4h0
		c0.4,0.3,0.9,0.6,1.4,0.8c0.6,0.2,1.1,0.3,1.7,0.3c0.8,0,1.3-0.1,1.6-0.4c0.3-0.2,0.5-0.6,0.5-1.2c0-0.3-0.1-0.6-0.3-0.8
		c-0.2-0.2-0.5-0.4-0.8-0.5c-0.3-0.1-0.8-0.3-1.3-0.4c-0.5-0.2-1.1-0.3-1.5-0.5c-0.4-0.1-0.8-0.4-1.1-0.8C82.1,99.1,82,98.6,82,98
		L82,98z M90.5,97.5l0.2-1.4c0.3-0.2,0.8-0.4,1.3-0.6c0.6-0.2,1.1-0.2,1.7-0.2c1.2,0,2.1,0.2,2.7,0.7c0.6,0.5,0.9,1.3,0.9,2.3v6.4
		h-1.4v-1.8h-0.1c-0.2,0.7-0.6,1.2-1.1,1.5c-0.5,0.3-1.1,0.5-1.9,0.5c-0.5,0-1-0.1-1.4-0.3c-0.4-0.2-0.8-0.5-1-0.9
		c-0.3-0.4-0.4-0.9-0.4-1.5c0-0.6,0.1-1.1,0.4-1.4c0.3-0.4,0.6-0.7,1.1-0.8c0.5-0.2,1-0.3,1.6-0.5c0.8-0.1,1.4-0.3,1.8-0.4
		c0.4-0.1,0.8-0.3,1-0.4v-0.4c0-0.7-0.2-1.2-0.5-1.5c-0.3-0.3-0.9-0.5-1.7-0.5c-0.5,0-1.1,0.1-1.6,0.3
		C91.4,96.9,90.9,97.2,90.5,97.5L90.5,97.5z M95.8,101.6v-1.9c-0.2,0.2-0.5,0.3-0.9,0.4c-0.4,0.1-1,0.2-1.6,0.3
		c-0.5,0.1-1,0.3-1.3,0.5c-0.3,0.2-0.5,0.7-0.5,1.3c0,0.5,0.2,1,0.5,1.2c0.3,0.3,0.8,0.4,1.3,0.4c0.5,0,1-0.1,1.4-0.3
		c0.4-0.2,0.7-0.5,0.9-0.9C95.7,102.3,95.8,102,95.8,101.6L95.8,101.6z M102.8,95.5c0-0.8,0.2-1.4,0.5-1.9c0.4-0.5,0.9-0.9,1.5-1.1
		c0.7-0.3,1.4-0.4,2.1-0.4c0.9,0,1.6,0.1,2.2,0.3c0.5,0.2,1,0.4,1.2,0.6l0.1,1.6h0c-0.3-0.2-0.6-0.4-0.9-0.6
		c-0.4-0.2-0.8-0.3-1.2-0.4c-0.4-0.1-0.9-0.2-1.3-0.2c-0.8,0-1.4,0.1-1.9,0.4c-0.5,0.3-0.7,0.8-0.7,1.4c0,0.5,0.1,0.9,0.4,1.2
		c0.2,0.3,0.6,0.5,1,0.7c0.4,0.2,1,0.3,1.6,0.5c0.5,0.2,1.1,0.3,1.5,0.5c0.5,0.2,0.9,0.4,1.3,0.6c0.4,0.3,0.6,0.6,0.9,1
		c0.2,0.4,0.3,0.9,0.3,1.6c0,1.2-0.4,2.1-1.2,2.8c-0.8,0.6-1.9,0.9-3.4,0.9c-0.7,0-1.4-0.1-2.2-0.3s-1.3-0.5-1.8-0.8l-0.1-1.6h0
		c0.5,0.5,1.2,0.8,1.9,1c0.7,0.3,1.5,0.4,2.2,0.4c1.9,0,2.9-0.7,2.9-2.1c0-0.5-0.1-0.9-0.3-1.2c-0.2-0.3-0.6-0.5-1-0.7
		c-0.5-0.2-1.1-0.4-1.7-0.5c-0.5-0.1-1-0.3-1.5-0.5c-0.4-0.2-0.9-0.4-1.2-0.6c-0.4-0.3-0.7-0.6-0.8-1
		C102.9,96.6,102.8,96,102.8,95.5L102.8,95.5z M117.3,95.2c0.9,0,1.7,0.2,2.4,0.6c0.7,0.4,1.2,1,1.6,1.7c0.4,0.7,0.6,1.6,0.6,2.5
		c0,0.9-0.2,1.8-0.6,2.5c-0.4,0.7-0.9,1.3-1.6,1.7c-0.7,0.4-1.6,0.6-2.4,0.6c-0.8,0-1.7-0.2-2.4-0.6c-0.7-0.4-1.3-1-1.6-1.7
		c-0.4-0.8-0.6-1.6-0.6-2.5c0-0.9,0.2-1.8,0.6-2.5c0.4-0.7,0.9-1.3,1.6-1.7C115.7,95.4,116.5,95.2,117.3,95.2L117.3,95.2z
		 M117.3,103.7c1,0,1.8-0.3,2.3-1c0.5-0.6,0.8-1.5,0.8-2.7c0-1.1-0.3-2-0.8-2.7c-0.5-0.7-1.3-1-2.3-1c-1,0-1.8,0.3-2.3,1
		c-0.5,0.7-0.8,1.5-0.8,2.7c0,1.1,0.3,2,0.8,2.7C115.5,103.4,116.3,103.7,117.3,103.7L117.3,103.7z M125.4,91.8v12.9h-1.5V91.8
		H125.4z M131.6,103.7c0.5,0,1-0.1,1.4-0.3c0.4-0.2,0.8-0.5,1-0.9c0.3-0.4,0.4-0.9,0.4-1.3v-5.7h1.5v9.2h-1.4v-2h-0.1
		c-0.2,0.5-0.4,0.9-0.8,1.3c-0.3,0.3-0.7,0.6-1.2,0.7c-0.4,0.1-0.9,0.2-1.3,0.2c-1,0-1.8-0.3-2.4-0.8c-0.6-0.5-0.9-1.3-0.9-2.4v-6.3
		h1.5v5.9c0,0.8,0.2,1.4,0.5,1.7C130.2,103.5,130.8,103.7,131.6,103.7L131.6,103.7z M140.4,102.2c0,0.6,0.1,1,0.4,1.2
		c0.2,0.2,0.6,0.3,1,0.3c0.4,0,0.7,0,1-0.1c0.3-0.1,0.5-0.1,0.7-0.2h0.1l-0.1,1.2c-0.2,0.1-0.5,0.2-0.7,0.2c-0.3,0.1-0.7,0.1-1,0.1
		c-0.8,0-1.5-0.2-1.9-0.6c-0.5-0.4-0.7-1-0.7-1.9v-5.8h-1.7l0.2-1l1.5-0.2v-2l1.5-0.2v2.2h2.8l-0.2,1.2h-2.7L140.4,102.2
		L140.4,102.2z M144.8,93.2c0-0.2,0.1-0.4,0.3-0.6c0.2-0.2,0.4-0.2,0.6-0.2c0.3,0,0.5,0.1,0.7,0.2c0.2,0.2,0.3,0.4,0.3,0.6
		c0,0.3-0.1,0.4-0.3,0.6c-0.2,0.2-0.4,0.2-0.7,0.2c-0.2,0-0.5-0.1-0.6-0.2C144.9,93.7,144.8,93.4,144.8,93.2L144.8,93.2z
		 M146.5,95.5v9.2H145v-9.2H146.5z M153.1,95.2c0.9,0,1.7,0.2,2.4,0.6c0.7,0.4,1.2,1,1.6,1.7c0.4,0.7,0.6,1.6,0.6,2.5
		c0,0.9-0.2,1.8-0.6,2.5c-0.4,0.7-0.9,1.3-1.6,1.7c-0.7,0.4-1.6,0.6-2.4,0.6c-0.8,0-1.7-0.2-2.4-0.6c-0.7-0.4-1.3-1-1.6-1.7
		c-0.4-0.8-0.6-1.6-0.6-2.5c0-0.9,0.2-1.8,0.6-2.5c0.4-0.7,0.9-1.3,1.6-1.7C151.4,95.4,152.3,95.2,153.1,95.2L153.1,95.2z
		 M153.1,103.7c1,0,1.8-0.3,2.3-1c0.5-0.6,0.8-1.5,0.8-2.7c0-1.1-0.3-2-0.8-2.7c-0.5-0.7-1.3-1-2.3-1c-1,0-1.8,0.3-2.3,1
		c-0.5,0.7-0.8,1.5-0.8,2.7c0,1.1,0.3,2,0.8,2.7C151.3,103.4,152.1,103.7,153.1,103.7L153.1,103.7z M163.9,96.5
		c-0.5,0-1,0.1-1.4,0.3c-0.4,0.2-0.8,0.5-1,0.9c-0.2,0.4-0.4,0.9-0.4,1.4v5.7h-1.5v-9.2h1.4v2h0.1c0.2-0.5,0.4-0.9,0.8-1.3
		c0.4-0.3,0.8-0.5,1.2-0.7c0.4-0.1,0.9-0.2,1.3-0.2c1,0,1.8,0.3,2.3,0.8c0.5,0.5,0.9,1.3,0.9,2.4v6.3h-1.4v-5.9
		c0-0.8-0.2-1.4-0.5-1.7C165.4,96.7,164.8,96.5,163.9,96.5L163.9,96.5z M163.9,96.5">
  </path>
 </g>
</svg>